<svg width="24" height="24" viewBox="0 0 24 24" fill="none" xmlns="http://www.w3.org/2000/svg">
<g clip-path="url(#clip0_102_925)">
<path d="M23.9871 12.2242C23.9871 11.2409 23.9054 10.5234 23.7287 9.7793H12.2388V14.2173H18.9831C18.8472 15.3202 18.1129 16.9811 16.4812 18.0972L16.4583 18.2458L20.0912 20.996L20.3429 21.0206C22.6544 18.9344 23.9871 15.8649 23.9871 12.2242Z" fill="#4285F4"/>
<path d="M12.2391 23.9178C15.5433 23.9178 18.3171 22.8548 20.3433 21.0211L16.4815 18.0978C15.4481 18.8021 14.0611 19.2937 12.2391 19.2937C9.00291 19.2937 6.25623 17.2076 5.27711 14.3242L5.13359 14.3361L1.35604 17.193L1.30664 17.3272C3.31906 21.2337 7.45273 23.9178 12.2391 23.9178Z" fill="#34A853"/>
<path d="M5.27726 14.3238C5.01892 13.5797 4.8694 12.7824 4.8694 11.9586C4.8694 11.1347 5.01892 10.3375 5.26367 9.59342L5.25683 9.43495L1.43194 6.53223L1.3068 6.59039C0.477385 8.21149 0.00146484 10.0319 0.00146484 11.9586C0.00146484 13.8853 0.477385 15.7056 1.3068 17.3267L5.27726 14.3238Z" fill="#FBBC05"/>
<path d="M12.2391 4.62403C14.5371 4.62403 16.0872 5.59401 16.971 6.40461L20.4248 3.10928C18.3036 1.1826 15.5433 0 12.2391 0C7.45273 0 3.31906 2.68406 1.30664 6.59056L5.26351 9.59359C6.25623 6.7102 9.00291 4.62403 12.2391 4.62403Z" fill="#EB4335"/>
</g>
<defs>
<clipPath id="clip0_102_925">
<rect width="24" height="24" fill="white"/>
</clipPath>
</defs>
</svg>
