<svg width="14" height="16" viewBox="0 0 14 16" fill="none" xmlns="http://www.w3.org/2000/svg">
<g id="Group 4">
<mask id="mask0_0_103" style="mask-type:alpha" maskUnits="userSpaceOnUse" x="0" y="0" width="14" height="16">
<rect id="Rectangle 30" x="0.199966" y="0.975086" width="13.1348" height="14.7" fill="#C4C4C4"/>
</mask>
<g mask="url(#mask0_0_103)">
<g id="Group 3">
<path id="Union" fill-rule="evenodd" clip-rule="evenodd" d="M10.4848 8.70298L6.82039 10.8687L3.15596 8.70298L6.82039 2.62273L10.4848 8.70298ZM-4.80414 20.6272C-4.7426 20.6272 -4.69099 20.5756 -4.69099 20.5141C-4.69099 19.8074 -5.22497 19.1504 -5.96143 19.1523C-6.69789 19.1523 -7.22393 19.8114 -7.22393 20.5181C-7.22393 21.2248 -6.69987 21.8838 -5.96143 21.8838C-5.53067 21.8838 -5.09197 21.6952 -4.87163 21.3101C-4.8617 21.2903 -4.85178 21.2704 -4.85773 21.2347C-4.86369 21.1989 -4.88751 21.1692 -4.91927 21.1553C-4.97882 21.1295 -5.02646 21.1573 -5.05822 21.2009C-5.27857 21.5146 -5.56839 21.6635 -5.96143 21.6635C-6.53511 21.6635 -6.94205 21.1692 -6.99763 20.6272H-4.80414ZM-5.96143 19.3687C-5.38774 19.3687 -4.97287 19.863 -4.92522 20.4049H-6.99763C-6.94205 19.863 -6.53511 19.3687 -5.96143 19.3687ZM-1.92183 19.3151C-1.92183 19.2615 -1.96748 19.2059 -2.031 19.2059H-2.6166V18.3583C-2.6166 18.2888 -2.67416 18.2392 -2.74761 18.2511C-2.80121 18.2591 -2.83694 18.3087 -2.83694 18.3623V19.2059H-3.40268C-3.46422 19.2059 -3.51186 19.2595 -3.51186 19.3151C-3.51186 19.3767 -3.4662 19.4243 -3.40268 19.4243H-2.83694V21.7309C-2.83694 21.7845 -2.79128 21.8401 -2.72776 21.8401C-2.66622 21.8401 -2.61858 21.7865 -2.61858 21.7309V19.4243H-2.031C-1.96947 19.4243 -1.92183 19.3786 -1.92183 19.3151ZM1.556 21.717V20.3196C1.556 19.724 1.18678 19.1583 0.543622 19.1583C0.152565 19.1583 -0.184896 19.3866 -0.373477 19.724V17.1276C-0.373477 17.074 -0.419134 17.0184 -0.482656 17.0184C-0.544192 17.0184 -0.591834 17.072 -0.591834 17.1276V21.717C-0.591834 21.7865 -0.534266 21.8362 -0.460819 21.8242C-0.407222 21.8163 -0.371492 21.7667 -0.371492 21.7131V20.665C-0.371492 20.6617 -0.372854 20.6478 -0.37445 20.6316C-0.376708 20.6087 -0.379432 20.581 -0.379432 20.5717C-0.419134 19.9662 -0.129314 19.3786 0.545607 19.3786C1.07165 19.3786 1.33765 19.8491 1.33765 20.3196V21.717C1.33765 21.7786 1.3833 21.8262 1.44683 21.8262C1.50042 21.8262 1.556 21.7806 1.556 21.717ZM5.37328 20.6272C5.43482 20.6272 5.48643 20.5756 5.48643 20.5141C5.48444 19.8074 4.95245 19.1504 4.21599 19.1523C3.47953 19.1523 2.95349 19.8114 2.95349 20.5181C2.95349 21.2248 3.47754 21.8838 4.21599 21.8838C4.64674 21.8838 5.08545 21.6952 5.30579 21.3101C5.31571 21.2903 5.32564 21.2704 5.31968 21.2347C5.31373 21.1989 5.28991 21.1692 5.25814 21.1553C5.19859 21.1295 5.15095 21.1573 5.11919 21.2009C4.89885 21.5146 4.60903 21.6635 4.21599 21.6635C3.6423 21.6635 3.23537 21.1692 3.17978 20.6272H5.37328ZM4.214 19.3687C4.78769 19.3687 5.20256 19.863 5.2502 20.4049H3.1778C3.23338 19.863 3.64032 19.3687 4.214 19.3687ZM8.07693 19.4243C8.13847 19.4164 8.17817 19.3786 8.17817 19.3072C8.17817 19.2437 8.11465 19.2059 8.06105 19.204C7.68587 19.204 7.32459 19.4938 7.14395 19.7995V19.3131C7.14395 19.2437 7.08639 19.194 7.01294 19.2059C6.95934 19.2139 6.92361 19.2635 6.92361 19.3171V21.7091C6.92361 21.7786 6.98118 21.8282 7.05463 21.8163C7.10822 21.8084 7.14395 21.7587 7.14395 21.7051V20.657C7.14395 20.0436 7.43377 19.5176 8.07693 19.4243ZM11.6659 20.6272C11.7275 20.6272 11.7791 20.5756 11.7791 20.5141C11.7771 19.8074 11.2451 19.1504 10.5086 19.1523C9.77218 19.1523 9.24614 19.8114 9.24614 20.5181C9.24614 21.2248 9.77019 21.8838 10.5086 21.8838C10.9394 21.8838 11.3781 21.6952 11.5984 21.3101C11.6084 21.2903 11.6183 21.2704 11.6123 21.2347C11.6064 21.1989 11.5826 21.1692 11.5508 21.1553C11.4912 21.1295 11.4436 21.1573 11.4118 21.2009C11.1915 21.5146 10.9017 21.6635 10.5086 21.6635C9.93495 21.6635 9.52802 21.1692 9.47243 20.6272H11.6659ZM10.5067 19.3687C11.0803 19.3687 11.4952 19.863 11.5429 20.4049H9.47045C9.52603 19.863 9.93297 19.3687 10.5067 19.3687ZM15.3184 21.7309V19.335C15.3184 19.2853 15.2867 19.2397 15.239 19.2238C15.1616 19.202 15.0981 19.2655 15.0981 19.329V20.2243C15.0981 20.9846 14.9254 21.6754 14.187 21.6754C13.6609 21.6754 13.3949 21.2049 13.3949 20.7344V19.329C13.3949 19.2754 13.3493 19.2198 13.2857 19.2198C13.2242 19.2198 13.1766 19.2734 13.1766 19.329V20.7344C13.1766 21.33 13.5378 21.8957 14.1889 21.8957C14.5979 21.8957 14.9194 21.6376 15.1001 21.2764V21.7309C15.1001 21.7925 15.1457 21.8401 15.2093 21.8401C15.2629 21.8401 15.3184 21.7945 15.3184 21.7309ZM20.8647 21.717V20.3116C20.8647 19.7161 20.4955 19.1583 19.8543 19.1563C19.3997 19.1563 19.0464 19.4461 18.8657 19.8551C18.7248 19.4382 18.3794 19.1563 17.9328 19.1563C17.5417 19.1563 17.2043 19.3767 17.0157 19.7141V19.3131C17.0157 19.2437 16.9581 19.194 16.8847 19.2059C16.8311 19.2139 16.7953 19.2635 16.7953 19.3171V21.717C16.7953 21.7865 16.8529 21.8362 16.9263 21.8242C16.9799 21.8163 17.0157 21.7667 17.0157 21.7131V20.657C17.0211 20.6516 17.0191 20.635 17.0173 20.62C17.0165 20.6131 17.0157 20.6065 17.0157 20.6014C16.9918 19.9027 17.2658 19.3767 17.9328 19.3767C18.4588 19.3767 18.7248 19.8392 18.7248 20.3096V21.7151C18.7248 21.7766 18.7705 21.8242 18.834 21.8242C18.8876 21.8242 18.9432 21.7786 18.9432 21.7151V20.6332C18.9432 20.0853 19.1953 19.3786 19.8543 19.3786C20.3804 19.3786 20.6463 19.8412 20.6463 20.3116V21.717C20.6463 21.7786 20.692 21.8262 20.7555 21.8262C20.8091 21.8262 20.8647 21.7806 20.8647 21.717ZM10.4868 9.39778L6.82038 14.5609L3.15595 9.39778L6.82038 11.5615L10.4868 9.39778Z" fill="#ED5B75"/>
</g>
</g>
</g>
</svg>
