<svg width="14" height="16" viewBox="0 0 14 16" fill="none" xmlns="http://www.w3.org/2000/svg">
<g id="Group 4">
<mask id="mask0_0_86" style="mask-type:alpha" maskUnits="userSpaceOnUse" x="0" y="0" width="14" height="16">
<rect id="Rectangle 30" x="0.199966" y="0.875114" width="13.1348" height="14.7" fill="#C4C4C4"/>
</mask>
<g mask="url(#mask0_0_86)">
<g id="Group 3">
<path id="Union" fill-rule="evenodd" clip-rule="evenodd" d="M10.4848 8.60301L6.82039 10.7687L3.15596 8.60301L6.82039 2.52277L10.4848 8.60301ZM-4.80414 20.5273C-4.7426 20.5273 -4.69099 20.4757 -4.69099 20.4141C-4.69099 19.7075 -5.22497 19.0504 -5.96143 19.0524C-6.69789 19.0524 -7.22393 19.7114 -7.22393 20.4181C-7.22393 21.1248 -6.69987 21.7838 -5.96143 21.7838C-5.53067 21.7838 -5.09197 21.5952 -4.87163 21.2101C-4.8617 21.1903 -4.85178 21.1704 -4.85773 21.1347C-4.86369 21.099 -4.88751 21.0692 -4.91927 21.0553C-4.97882 21.0295 -5.02646 21.0573 -5.05822 21.101C-5.27857 21.4146 -5.56839 21.5635 -5.96143 21.5635C-6.53511 21.5635 -6.94205 21.0692 -6.99763 20.5273H-4.80414ZM-5.96143 19.2688C-5.38774 19.2688 -4.97287 19.763 -4.92522 20.305H-6.99763C-6.94205 19.763 -6.53511 19.2688 -5.96143 19.2688ZM-1.92183 19.2152C-1.92183 19.1616 -1.96748 19.106 -2.031 19.106H-2.6166V18.2584C-2.6166 18.1889 -2.67416 18.1393 -2.74761 18.1512C-2.80121 18.1591 -2.83694 18.2087 -2.83694 18.2623V19.106H-3.40268C-3.46422 19.106 -3.51186 19.1596 -3.51186 19.2152C-3.51186 19.2767 -3.4662 19.3243 -3.40268 19.3243H-2.83694V21.631C-2.83694 21.6846 -2.79128 21.7402 -2.72776 21.7402C-2.66622 21.7402 -2.61858 21.6866 -2.61858 21.631V19.3243H-2.031C-1.96947 19.3243 -1.92183 19.2787 -1.92183 19.2152ZM1.556 21.6171V20.2196C1.556 19.6241 1.18678 19.0583 0.543622 19.0583C0.152565 19.0583 -0.184896 19.2866 -0.373477 19.6241V17.0276C-0.373477 16.974 -0.419134 16.9184 -0.482656 16.9184C-0.544192 16.9184 -0.591834 16.972 -0.591834 17.0276V21.6171C-0.591834 21.6866 -0.534266 21.7362 -0.460819 21.7243C-0.407222 21.7163 -0.371492 21.6667 -0.371492 21.6131V20.565C-0.371492 20.5617 -0.372854 20.5479 -0.37445 20.5316C-0.376708 20.5087 -0.379432 20.481 -0.379432 20.4717C-0.419134 19.8663 -0.129314 19.2787 0.545607 19.2787C1.07165 19.2787 1.33765 19.7491 1.33765 20.2196V21.6171C1.33765 21.6786 1.3833 21.7263 1.44683 21.7263C1.50042 21.7263 1.556 21.6806 1.556 21.6171ZM5.37328 20.5273C5.43482 20.5273 5.48643 20.4757 5.48643 20.4141C5.48444 19.7075 4.95245 19.0504 4.21599 19.0524C3.47953 19.0524 2.95349 19.7114 2.95349 20.4181C2.95349 21.1248 3.47754 21.7838 4.21599 21.7838C4.64674 21.7838 5.08545 21.5952 5.30579 21.2101C5.31571 21.1903 5.32564 21.1704 5.31968 21.1347C5.31373 21.099 5.28991 21.0692 5.25814 21.0553C5.19859 21.0295 5.15095 21.0573 5.11919 21.101C4.89885 21.4146 4.60903 21.5635 4.21599 21.5635C3.6423 21.5635 3.23537 21.0692 3.17978 20.5273H5.37328ZM4.214 19.2688C4.78769 19.2688 5.20256 19.763 5.2502 20.305H3.1778C3.23338 19.763 3.64032 19.2688 4.214 19.2688ZM8.07693 19.3243C8.13847 19.3164 8.17817 19.2787 8.17817 19.2072C8.17817 19.1437 8.11465 19.106 8.06105 19.104C7.68587 19.104 7.32459 19.3938 7.14395 19.6995V19.2132C7.14395 19.1437 7.08639 19.0941 7.01294 19.106C6.95934 19.1139 6.92361 19.1635 6.92361 19.2171V21.6091C6.92361 21.6786 6.98118 21.7282 7.05463 21.7163C7.10822 21.7084 7.14395 21.6588 7.14395 21.6052V20.5571C7.14395 19.9437 7.43377 19.4176 8.07693 19.3243ZM11.6659 20.5273C11.7275 20.5273 11.7791 20.4757 11.7791 20.4141C11.7771 19.7075 11.2451 19.0504 10.5086 19.0524C9.77218 19.0524 9.24614 19.7114 9.24614 20.4181C9.24614 21.1248 9.77019 21.7838 10.5086 21.7838C10.9394 21.7838 11.3781 21.5952 11.5984 21.2101C11.6084 21.1903 11.6183 21.1704 11.6123 21.1347C11.6064 21.099 11.5826 21.0692 11.5508 21.0553C11.4912 21.0295 11.4436 21.0573 11.4118 21.101C11.1915 21.4146 10.9017 21.5635 10.5086 21.5635C9.93495 21.5635 9.52802 21.0692 9.47243 20.5273H11.6659ZM10.5067 19.2688C11.0803 19.2688 11.4952 19.763 11.5429 20.305H9.47045C9.52603 19.763 9.93297 19.2688 10.5067 19.2688ZM15.3184 21.631V19.235C15.3184 19.1854 15.2867 19.1397 15.239 19.1238C15.1616 19.102 15.0981 19.1655 15.0981 19.229V20.1243C15.0981 20.8846 14.9254 21.5754 14.187 21.5754C13.6609 21.5754 13.3949 21.1049 13.3949 20.6345V19.229C13.3949 19.1755 13.3493 19.1199 13.2857 19.1199C13.2242 19.1199 13.1766 19.1735 13.1766 19.229V20.6345C13.1766 21.23 13.5378 21.7957 14.1889 21.7957C14.5979 21.7957 14.9194 21.5377 15.1001 21.1764V21.631C15.1001 21.6925 15.1457 21.7402 15.2093 21.7402C15.2629 21.7402 15.3184 21.6945 15.3184 21.631ZM20.8647 21.6171V20.2117C20.8647 19.6161 20.4955 19.0583 19.8543 19.0564C19.3997 19.0564 19.0464 19.3462 18.8657 19.7551C18.7248 19.3382 18.3794 19.0564 17.9328 19.0564C17.5417 19.0564 17.2043 19.2767 17.0157 19.6142V19.2132C17.0157 19.1437 16.9581 19.0941 16.8847 19.106C16.8311 19.1139 16.7953 19.1635 16.7953 19.2171V21.6171C16.7953 21.6866 16.8529 21.7362 16.9263 21.7243C16.9799 21.7163 17.0157 21.6667 17.0157 21.6131V20.5571C17.0211 20.5516 17.0191 20.5351 17.0173 20.5201C17.0165 20.5131 17.0157 20.5065 17.0157 20.5015C16.9918 19.8027 17.2658 19.2767 17.9328 19.2767C18.4588 19.2767 18.7248 19.7392 18.7248 20.2097V21.6151C18.7248 21.6766 18.7705 21.7243 18.834 21.7243C18.8876 21.7243 18.9432 21.6786 18.9432 21.6151V20.5332C18.9432 19.9854 19.1953 19.2787 19.8543 19.2787C20.3804 19.2787 20.6463 19.7412 20.6463 20.2117V21.6171C20.6463 21.6786 20.692 21.7263 20.7555 21.7263C20.8091 21.7263 20.8647 21.6806 20.8647 21.6171ZM10.4868 9.29781L6.82038 14.461L3.15595 9.29781L6.82038 11.4615L10.4868 9.29781Z" fill="#4FDFB1"/>
</g>
</g>
</g>
</svg>
