<svg width="14" height="16" viewBox="0 0 14 16" fill="none" xmlns="http://www.w3.org/2000/svg">
<g id="Group 4">
<mask id="mask0_0_71" style="mask-type:alpha" maskUnits="userSpaceOnUse" x="0" y="0" width="14" height="16">
<rect id="Rectangle 30" x="0.199966" y="0.775009" width="13.1348" height="14.7" fill="#C4C4C4"/>
</mask>
<g mask="url(#mask0_0_71)">
<g id="Group 3">
<path id="Union" fill-rule="evenodd" clip-rule="evenodd" d="M10.4848 8.5029L6.82039 10.6686L3.15596 8.5029L6.82039 2.42265L10.4848 8.5029ZM-4.80414 20.4272C-4.7426 20.4272 -4.69099 20.3756 -4.69099 20.314C-4.69099 19.6073 -5.22497 18.9503 -5.96143 18.9523C-6.69789 18.9523 -7.22393 19.6113 -7.22393 20.318C-7.22393 21.0247 -6.69987 21.6837 -5.96143 21.6837C-5.53067 21.6837 -5.09197 21.4951 -4.87163 21.11C-4.8617 21.0902 -4.85178 21.0703 -4.85773 21.0346C-4.86369 20.9989 -4.88751 20.9691 -4.91927 20.9552C-4.97882 20.9294 -5.02646 20.9572 -5.05822 21.0009C-5.27857 21.3145 -5.56839 21.4634 -5.96143 21.4634C-6.53511 21.4634 -6.94205 20.9691 -6.99763 20.4272H-4.80414ZM-5.96143 19.1686C-5.38774 19.1686 -4.97287 19.6629 -4.92522 20.2048H-6.99763C-6.94205 19.6629 -6.53511 19.1686 -5.96143 19.1686ZM-1.92183 19.115C-1.92183 19.0614 -1.96748 19.0059 -2.031 19.0059H-2.6166V18.1582C-2.6166 18.0888 -2.67416 18.0391 -2.74761 18.051C-2.80121 18.059 -2.83694 18.1086 -2.83694 18.1622V19.0059H-3.40268C-3.46422 19.0059 -3.51186 19.0595 -3.51186 19.115C-3.51186 19.1766 -3.4662 19.2242 -3.40268 19.2242H-2.83694V21.5309C-2.83694 21.5845 -2.79128 21.64 -2.72776 21.64C-2.66622 21.64 -2.61858 21.5864 -2.61858 21.5309V19.2242H-2.031C-1.96947 19.2242 -1.92183 19.1786 -1.92183 19.115ZM1.556 21.517V20.1195C1.556 19.524 1.18678 18.9582 0.543622 18.9582C0.152565 18.9582 -0.184896 19.1865 -0.373477 19.524V16.9275C-0.373477 16.8739 -0.419134 16.8183 -0.482656 16.8183C-0.544192 16.8183 -0.591834 16.8719 -0.591834 16.9275V21.517C-0.591834 21.5864 -0.534266 21.6361 -0.460819 21.6242C-0.407222 21.6162 -0.371492 21.5666 -0.371492 21.513V20.4649C-0.371492 20.4616 -0.372854 20.4478 -0.37445 20.4315C-0.376708 20.4086 -0.379432 20.3809 -0.379432 20.3716C-0.419134 19.7661 -0.129314 19.1786 0.545607 19.1786C1.07165 19.1786 1.33765 19.649 1.33765 20.1195V21.517C1.33765 21.5785 1.3833 21.6261 1.44683 21.6261C1.50042 21.6261 1.556 21.5805 1.556 21.517ZM5.37328 20.4272C5.43482 20.4272 5.48643 20.3756 5.48643 20.314C5.48444 19.6073 4.95245 18.9503 4.21599 18.9523C3.47953 18.9523 2.95349 19.6113 2.95349 20.318C2.95349 21.0247 3.47754 21.6837 4.21599 21.6837C4.64674 21.6837 5.08545 21.4951 5.30579 21.11C5.31571 21.0902 5.32564 21.0703 5.31968 21.0346C5.31373 20.9989 5.28991 20.9691 5.25814 20.9552C5.19859 20.9294 5.15095 20.9572 5.11919 21.0009C4.89885 21.3145 4.60903 21.4634 4.21599 21.4634C3.6423 21.4634 3.23537 20.9691 3.17978 20.4272H5.37328ZM4.214 19.1686C4.78769 19.1686 5.20256 19.6629 5.2502 20.2048H3.1778C3.23338 19.6629 3.64032 19.1686 4.214 19.1686ZM8.07693 19.2242C8.13847 19.2163 8.17817 19.1786 8.17817 19.1071C8.17817 19.0436 8.11465 19.0059 8.06105 19.0039C7.68587 19.0039 7.32459 19.2937 7.14395 19.5994V19.1131C7.14395 19.0436 7.08639 18.994 7.01294 19.0059C6.95934 19.0138 6.92361 19.0634 6.92361 19.117V21.509C6.92361 21.5785 6.98118 21.6281 7.05463 21.6162C7.10822 21.6083 7.14395 21.5587 7.14395 21.5051V20.4569C7.14395 19.8436 7.43377 19.3175 8.07693 19.2242ZM11.6659 20.4272C11.7275 20.4272 11.7791 20.3756 11.7791 20.314C11.7771 19.6073 11.2451 18.9503 10.5086 18.9523C9.77218 18.9523 9.24614 19.6113 9.24614 20.318C9.24614 21.0247 9.77019 21.6837 10.5086 21.6837C10.9394 21.6837 11.3781 21.4951 11.5984 21.11C11.6084 21.0902 11.6183 21.0703 11.6123 21.0346C11.6064 20.9989 11.5826 20.9691 11.5508 20.9552C11.4912 20.9294 11.4436 20.9572 11.4118 21.0009C11.1915 21.3145 10.9017 21.4634 10.5086 21.4634C9.93495 21.4634 9.52802 20.9691 9.47243 20.4272H11.6659ZM10.5067 19.1686C11.0803 19.1686 11.4952 19.6629 11.5429 20.2048H9.47045C9.52603 19.6629 9.93297 19.1686 10.5067 19.1686ZM15.3184 21.5309V19.1349C15.3184 19.0853 15.2867 19.0396 15.239 19.0237C15.1616 19.0019 15.0981 19.0654 15.0981 19.1289V20.0242C15.0981 20.7845 14.9254 21.4753 14.187 21.4753C13.6609 21.4753 13.3949 21.0048 13.3949 20.5344V19.1289C13.3949 19.0753 13.3493 19.0198 13.2857 19.0198C13.2242 19.0198 13.1766 19.0734 13.1766 19.1289V20.5344C13.1766 21.1299 13.5378 21.6956 14.1889 21.6956C14.5979 21.6956 14.9194 21.4376 15.1001 21.0763V21.5309C15.1001 21.5924 15.1457 21.64 15.2093 21.64C15.2629 21.64 15.3184 21.5944 15.3184 21.5309ZM20.8647 21.517V20.1115C20.8647 19.516 20.4955 18.9582 19.8543 18.9562C19.3997 18.9562 19.0464 19.2461 18.8657 19.655C18.7248 19.2381 18.3794 18.9562 17.9328 18.9562C17.5417 18.9562 17.2043 19.1766 17.0157 19.514V19.1131C17.0157 19.0436 16.9581 18.994 16.8847 19.0059C16.8311 19.0138 16.7953 19.0634 16.7953 19.117V21.517C16.7953 21.5864 16.8529 21.6361 16.9263 21.6242C16.9799 21.6162 17.0157 21.5666 17.0157 21.513V20.4569C17.0211 20.4515 17.0191 20.435 17.0173 20.42C17.0165 20.413 17.0157 20.4064 17.0157 20.4014C16.9918 19.7026 17.2658 19.1766 17.9328 19.1766C18.4588 19.1766 18.7248 19.6391 18.7248 20.1096V21.515C18.7248 21.5765 18.7705 21.6242 18.834 21.6242C18.8876 21.6242 18.9432 21.5785 18.9432 21.515V20.4331C18.9432 19.8852 19.1953 19.1786 19.8543 19.1786C20.3804 19.1786 20.6463 19.6411 20.6463 20.1115V21.517C20.6463 21.5785 20.692 21.6261 20.7555 21.6261C20.8091 21.6261 20.8647 21.5805 20.8647 21.517ZM10.4868 9.19794L6.82038 14.3611L3.15595 9.19794L6.82038 11.3617L10.4868 9.19794Z" fill="#FBB142"/>
</g>
</g>
</g>
</svg>
