<svg width="14" height="15" viewBox="0 0 14 15" fill="none" xmlns="http://www.w3.org/2000/svg">
<g id="Group 4">
<mask id="mask0_0_134" style="mask-type:alpha" maskUnits="userSpaceOnUse" x="0" y="0" width="14" height="15">
<rect id="Rectangle 30" x="0.0999756" y="0.287483" width="13.1348" height="14.7" fill="#C4C4C4"/>
</mask>
<g mask="url(#mask0_0_134)">
<g id="Group 3">
<path id="Union" fill-rule="evenodd" clip-rule="evenodd" d="M10.3846 8.01533L6.72016 10.181L3.05573 8.01533L6.72016 1.93509L10.3846 8.01533ZM-4.90437 19.9396C-4.84283 19.9396 -4.79122 19.888 -4.79122 19.8265C-4.79122 19.1198 -5.3252 18.4627 -6.06166 18.4647C-6.79812 18.4647 -7.32416 19.1237 -7.32416 19.8304C-7.32416 20.5371 -6.8001 21.1961 -6.06166 21.1961C-5.6309 21.1961 -5.1922 21.0076 -4.97186 20.6225C-4.96193 20.6026 -4.95201 20.5828 -4.95796 20.547C-4.96392 20.5113 -4.98774 20.4815 -5.0195 20.4676C-5.07905 20.4418 -5.12669 20.4696 -5.15846 20.5133C-5.3788 20.8269 -5.66862 20.9758 -6.06166 20.9758C-6.63534 20.9758 -7.04228 20.4815 -7.09786 19.9396H-4.90437ZM-6.06166 18.6811C-5.48798 18.6811 -5.0731 19.1754 -5.02546 19.7173H-7.09786C-7.04228 19.1754 -6.63534 18.6811 -6.06166 18.6811ZM-2.02206 18.6275C-2.02206 18.5739 -2.06771 18.5183 -2.13124 18.5183H-2.71683V17.6707C-2.71683 17.6012 -2.77439 17.5516 -2.84784 17.5635C-2.90144 17.5714 -2.93717 17.621 -2.93717 17.6746V18.5183H-3.50291C-3.56445 18.5183 -3.61209 18.5719 -3.61209 18.6275C-3.61209 18.689 -3.56643 18.7367 -3.50291 18.7367H-2.93717V21.0433C-2.93717 21.0969 -2.89151 21.1525 -2.82799 21.1525C-2.76645 21.1525 -2.71881 21.0989 -2.71881 21.0433V18.7367H-2.13124C-2.0697 18.7367 -2.02206 18.691 -2.02206 18.6275ZM1.45577 21.0294V19.6319C1.45577 19.0364 1.08655 18.4707 0.443391 18.4707C0.0523338 18.4707 -0.285128 18.6989 -0.473709 19.0364V16.4399C-0.473709 16.3863 -0.519365 16.3308 -0.582887 16.3308C-0.644423 16.3308 -0.692065 16.3844 -0.692065 16.4399V21.0294C-0.692065 21.0989 -0.634498 21.1485 -0.56105 21.1366C-0.507453 21.1287 -0.471723 21.079 -0.471723 21.0254V19.9773C-0.471723 19.974 -0.473085 19.9602 -0.474681 19.944C-0.476939 19.921 -0.479663 19.8933 -0.479663 19.884C-0.519365 19.2786 -0.229546 18.691 0.445375 18.691C0.971416 18.691 1.23742 19.1615 1.23742 19.6319V21.0294C1.23742 21.0909 1.28307 21.1386 1.34659 21.1386C1.40019 21.1386 1.45577 21.0929 1.45577 21.0294ZM5.27305 19.9396C5.33459 19.9396 5.3862 19.888 5.3862 19.8265C5.38421 19.1198 4.85221 18.4627 4.11576 18.4647C3.3793 18.4647 2.85326 19.1237 2.85326 19.8304C2.85326 20.5371 3.37731 21.1961 4.11576 21.1961C4.54651 21.1961 4.98521 21.0076 5.20556 20.6225C5.21548 20.6026 5.22541 20.5828 5.21945 20.547C5.2135 20.5113 5.18967 20.4815 5.15791 20.4676C5.09836 20.4418 5.05072 20.4696 5.01896 20.5133C4.79862 20.8269 4.5088 20.9758 4.11576 20.9758C3.54207 20.9758 3.13513 20.4815 3.07955 19.9396H5.27305ZM4.11377 18.6811C4.68745 18.6811 5.10233 19.1754 5.14997 19.7173H3.07757C3.13315 19.1754 3.54009 18.6811 4.11377 18.6811ZM7.9767 18.7367C8.03824 18.7287 8.07794 18.691 8.07794 18.6195C8.07794 18.556 8.01442 18.5183 7.96082 18.5163C7.58564 18.5163 7.22436 18.8061 7.04372 19.1118V18.6255C7.04372 18.556 6.98616 18.5064 6.91271 18.5183C6.85911 18.5262 6.82338 18.5759 6.82338 18.6295V21.0215C6.82338 21.0909 6.88095 21.1406 6.9544 21.1287C7.00799 21.1207 7.04372 21.0711 7.04372 21.0175V19.9694C7.04372 19.356 7.33354 18.83 7.9767 18.7367ZM11.5657 19.9396C11.6272 19.9396 11.6788 19.888 11.6788 19.8265C11.6769 19.1198 11.1449 18.4627 10.4084 18.4647C9.67195 18.4647 9.1459 19.1237 9.1459 19.8304C9.1459 20.5371 9.66996 21.1961 10.4084 21.1961C10.8392 21.1961 11.2779 21.0076 11.4982 20.6225C11.5081 20.6026 11.5181 20.5828 11.5121 20.547C11.5061 20.5113 11.4823 20.4815 11.4506 20.4676C11.391 20.4418 11.3434 20.4696 11.3116 20.5133C11.0913 20.8269 10.8014 20.9758 10.4084 20.9758C9.83472 20.9758 9.42778 20.4815 9.3722 19.9396H11.5657ZM10.4064 18.6811C10.9801 18.6811 11.395 19.1754 11.4426 19.7173H9.37021C9.4258 19.1754 9.83274 18.6811 10.4064 18.6811ZM15.2182 21.0433V18.6473C15.2182 18.5977 15.1864 18.552 15.1388 18.5362C15.0614 18.5143 14.9979 18.5778 14.9979 18.6414V19.5366C14.9979 20.2969 14.8252 20.9877 14.0867 20.9877C13.5607 20.9877 13.2947 20.5173 13.2947 20.0468V18.6414C13.2947 18.5878 13.249 18.5322 13.1855 18.5322C13.124 18.5322 13.0763 18.5858 13.0763 18.6414V20.0468C13.0763 20.6423 13.4376 21.2081 14.0887 21.2081C14.4976 21.2081 14.8192 20.95 14.9999 20.5887V21.0433C14.9999 21.1048 15.0455 21.1525 15.109 21.1525C15.1626 21.1525 15.2182 21.1068 15.2182 21.0433ZM20.7645 21.0294V19.624C20.7645 19.0285 20.3953 18.4707 19.7541 18.4687C19.2995 18.4687 18.9462 18.7585 18.7655 19.1674C18.6246 18.7505 18.2792 18.4687 17.8325 18.4687C17.4415 18.4687 17.104 18.689 16.9154 19.0265V18.6255C16.9154 18.556 16.8579 18.5064 16.7844 18.5183C16.7308 18.5262 16.6951 18.5759 16.6951 18.6295V21.0294C16.6951 21.0989 16.7527 21.1485 16.8261 21.1366C16.8797 21.1287 16.9154 21.079 16.9154 21.0254V19.9694C16.9209 19.9639 16.9189 19.9474 16.9171 19.9324C16.9162 19.9254 16.9154 19.9188 16.9154 19.9138C16.8916 19.215 17.1656 18.689 17.8325 18.689C18.3586 18.689 18.6246 19.1515 18.6246 19.622V21.0274C18.6246 21.089 18.6702 21.1366 18.7338 21.1366C18.7873 21.1366 18.8429 21.0909 18.8429 21.0274V19.9456C18.8429 19.3977 19.095 18.691 19.7541 18.691C20.2801 18.691 20.5461 19.1535 20.5461 19.624V21.0294C20.5461 21.0909 20.5918 21.1386 20.6553 21.1386C20.7089 21.1386 20.7645 21.0929 20.7645 21.0294ZM10.3867 8.71034L6.72026 13.8735L3.05584 8.71034L6.72026 10.8741L10.3867 8.71034Z" fill="#272727"/>
</g>
</g>
</g>
</svg>
